<svg enable-background="new 0 0 52 52" height="52" viewBox="0 0 52 52" width="52" xmlns="http://www.w3.org/2000/svg"><g fill="#fff"><path d="m24.4 31.8c-.6-.6-1.5-.6-2.1 0l-3.6 3.6c-.6.6-1.7.2-1.7-.7v-13.2c0-.8-.7-1.5-1.5-1.5h-3c-.8 0-1.5.7-1.5 1.5v13.2c0 .9-1.1 1.3-1.7.7l-3.6-3.6c-.6-.6-1.5-.6-2.1 0l-2.2 2.2c-.6.6-.6 1.5 0 2.1l11.5 11.5c.6.6 1.5.6 2.1 0l11.6-11.6c.6-.6.6-1.5 0-2.1z"/><path d="m51 9.5c0-.8-.7-1.5-1.5-1.5h-37c-.8 0-1.5.7-1.5 1.5v3c0 .8.7 1.5 1.5 1.5h37c.8 0 1.5-.7 1.5-1.5z"/><path d="m51 21.5c0-.8-.7-1.5-1.5-1.5h-27c-.8 0-1.5.7-1.5 1.5v3c0 .8.7 1.5 1.5 1.5h27c.8 0 1.5-.7 1.5-1.5z"/><path d="m51 33.5c0-.8-.7-1.5-1.5-1.5h-17c-.8 0-1.5.7-1.5 1.5v3c0 .8.7 1.5 1.5 1.5h17c.8 0 1.5-.7 1.5-1.5z"/></g></svg>